G04 (created by PCBNEW (2013-07-07 BZR 4022)-stable) date 12/8/2013 11:31:44 AM*
%MOIN*%
G04 Gerber Fmt 3.4, Leading zero omitted, Abs format*
%FSLAX34Y34*%
G01*
G70*
G90*
G04 APERTURE LIST*
%ADD10C,0.00590551*%
%ADD11O,0.0274X0.0549*%
%ADD12R,0.05X0.015*%
%ADD13R,0.045X0.025*%
%ADD14R,0.025X0.045*%
%ADD15R,0.06X0.06*%
%ADD16C,0.06*%
%ADD17R,0.0394X0.0106*%
%ADD18C,0.025*%
%ADD19C,0.008*%
%ADD20C,0.01*%
%ADD21C,0.006*%
%ADD22C,0.015*%
G04 APERTURE END LIST*
G54D10*
G54D11*
X86773Y-65389D03*
X86281Y-65389D03*
X85789Y-65389D03*
X85297Y-65389D03*
X84805Y-65389D03*
X84313Y-65389D03*
G54D12*
X84873Y-60574D03*
X84873Y-60830D03*
X84873Y-61086D03*
X84873Y-61342D03*
X84873Y-61598D03*
X84873Y-61854D03*
X84873Y-62110D03*
X84873Y-62366D03*
X87077Y-62366D03*
X87077Y-62110D03*
X87077Y-61854D03*
X87077Y-61598D03*
X87077Y-61342D03*
X87077Y-61086D03*
X87077Y-60830D03*
X87077Y-60574D03*
G54D13*
X83630Y-54010D03*
X83630Y-54610D03*
X84280Y-54010D03*
X84280Y-54610D03*
X85780Y-54660D03*
X85780Y-55260D03*
X85080Y-54660D03*
X85080Y-55260D03*
G54D14*
X83050Y-63900D03*
X83650Y-63900D03*
X83050Y-64650D03*
X83650Y-64650D03*
G54D13*
X84280Y-53210D03*
X84280Y-52610D03*
X87430Y-52560D03*
X87430Y-53160D03*
G54D14*
X88100Y-64500D03*
X87500Y-64500D03*
X82850Y-57550D03*
X83450Y-57550D03*
X82850Y-56550D03*
X83450Y-56550D03*
X82850Y-49700D03*
X83450Y-49700D03*
X82850Y-48700D03*
X83450Y-48700D03*
X83050Y-63200D03*
X83650Y-63200D03*
G54D13*
X83630Y-53210D03*
X83630Y-52610D03*
X88130Y-52560D03*
X88130Y-53160D03*
G54D14*
X83230Y-61260D03*
X83830Y-61260D03*
X83230Y-60460D03*
X83830Y-60460D03*
X83230Y-59660D03*
X83830Y-59660D03*
G54D15*
X89000Y-58586D03*
G54D16*
X89000Y-57586D03*
X89000Y-56586D03*
X89000Y-55586D03*
G54D15*
X82000Y-58586D03*
G54D16*
X82000Y-57586D03*
X82000Y-56586D03*
X82000Y-55586D03*
G54D15*
X89000Y-50712D03*
G54D16*
X89000Y-49712D03*
X89000Y-48712D03*
X89000Y-47712D03*
G54D15*
X82000Y-50712D03*
G54D16*
X82000Y-49712D03*
X82000Y-48712D03*
X82000Y-47712D03*
G54D15*
X89000Y-66460D03*
G54D16*
X89000Y-65460D03*
X89000Y-64460D03*
X89000Y-63460D03*
G54D15*
X82000Y-66460D03*
G54D16*
X82000Y-65460D03*
X82000Y-64460D03*
X82000Y-63460D03*
G54D17*
X84905Y-53260D03*
X84905Y-53460D03*
X84905Y-53660D03*
X84905Y-53860D03*
X84905Y-54060D03*
X86655Y-54060D03*
X86655Y-53860D03*
X86655Y-53660D03*
X86655Y-53460D03*
X86655Y-53260D03*
G54D18*
X89000Y-59950D03*
X87400Y-54300D03*
X87800Y-53700D03*
X87800Y-61100D03*
X88150Y-54050D03*
X88150Y-60850D03*
X84007Y-65964D03*
X83950Y-62550D03*
X85470Y-59493D03*
X86392Y-55562D03*
X84430Y-61360D03*
X83850Y-48700D03*
X83380Y-61860D03*
X82750Y-50350D03*
X83730Y-62010D03*
X83850Y-56550D03*
X83850Y-57550D03*
X84130Y-62110D03*
X81235Y-60585D03*
X84917Y-58737D03*
X85430Y-54310D03*
G54D19*
X82850Y-48700D02*
X82012Y-48700D01*
X82012Y-48700D02*
X82000Y-48712D01*
X82850Y-49700D02*
X82012Y-49700D01*
X82012Y-49700D02*
X82000Y-49712D01*
G54D20*
X82850Y-56550D02*
X82280Y-56560D01*
X82850Y-57550D02*
X82280Y-57560D01*
G54D19*
X82000Y-64460D02*
X82000Y-64400D01*
X82700Y-63550D02*
X83050Y-63200D01*
X82700Y-63700D02*
X82700Y-63550D01*
X82000Y-64400D02*
X82700Y-63700D01*
X82000Y-65460D02*
X82000Y-65450D01*
X82650Y-64300D02*
X83050Y-63900D01*
X82650Y-64800D02*
X82650Y-64300D01*
X82000Y-65450D02*
X82650Y-64800D01*
X82000Y-66460D02*
X82189Y-66460D01*
X83050Y-65600D02*
X83050Y-64650D01*
X82189Y-66460D02*
X83050Y-65600D01*
X88100Y-64500D02*
X88960Y-64500D01*
X88960Y-64500D02*
X89000Y-64460D01*
G54D21*
X87430Y-52560D02*
X87430Y-51620D01*
X87430Y-51620D02*
X88337Y-50712D01*
X88337Y-50712D02*
X89000Y-50712D01*
X84280Y-51510D02*
X84280Y-51420D01*
X84280Y-52610D02*
X84280Y-51510D01*
X87987Y-47712D02*
X89000Y-47712D01*
X84280Y-51420D02*
X87987Y-47712D01*
X86300Y-57250D02*
X85324Y-57250D01*
X89000Y-59950D02*
X86300Y-57250D01*
X85152Y-57078D02*
X83144Y-55070D01*
X83144Y-55070D02*
X83144Y-52650D01*
X83144Y-52650D02*
X83184Y-52610D01*
X83184Y-52610D02*
X83630Y-52610D01*
X85324Y-57250D02*
X85152Y-57078D01*
X89000Y-55586D02*
X89000Y-52814D01*
X89000Y-52814D02*
X88746Y-52560D01*
X88746Y-52560D02*
X88130Y-52560D01*
G54D19*
X87180Y-54060D02*
X86655Y-54060D01*
X87400Y-54300D02*
X87180Y-54060D01*
X87760Y-53660D02*
X86655Y-53660D01*
X87800Y-53700D02*
X87760Y-53660D01*
X87786Y-61086D02*
X87800Y-61100D01*
X87786Y-61086D02*
X87077Y-61086D01*
X87101Y-61110D02*
X87077Y-61086D01*
X87077Y-60830D02*
X88130Y-60830D01*
X87360Y-53860D02*
X86655Y-53860D01*
X87500Y-54000D02*
X87360Y-53860D01*
X88100Y-54000D02*
X87500Y-54000D01*
X88150Y-54050D02*
X88100Y-54000D01*
X88130Y-60830D02*
X88150Y-60850D01*
G54D22*
X84007Y-65964D02*
X86255Y-65964D01*
X86281Y-65939D02*
X86281Y-65389D01*
X86255Y-65964D02*
X86281Y-65939D01*
X84873Y-62366D02*
X84873Y-62532D01*
X84855Y-62550D02*
X83950Y-62550D01*
X84873Y-62532D02*
X84855Y-62550D01*
X83230Y-61260D02*
X82980Y-61260D01*
X83299Y-62550D02*
X83950Y-62550D01*
X82980Y-62231D02*
X83299Y-62550D01*
X82980Y-61260D02*
X82980Y-62231D01*
X85780Y-55260D02*
X86068Y-55260D01*
X86370Y-55562D02*
X86392Y-55562D01*
X86068Y-55260D02*
X86370Y-55562D01*
X84905Y-53260D02*
X85390Y-53260D01*
X85390Y-53260D02*
X85400Y-53250D01*
G54D19*
X84905Y-54060D02*
X84130Y-54060D01*
X84130Y-54060D02*
X84080Y-54010D01*
X83630Y-54010D02*
X84080Y-54010D01*
X86655Y-53260D02*
X87430Y-53260D01*
X84100Y-64650D02*
X84600Y-64650D01*
X87624Y-61854D02*
X87680Y-61910D01*
X87680Y-61910D02*
X87680Y-62810D01*
X83650Y-64650D02*
X84100Y-64650D01*
X87624Y-61854D02*
X87077Y-61854D01*
X87440Y-63050D02*
X87680Y-62810D01*
X86200Y-63050D02*
X87440Y-63050D01*
X84600Y-64650D02*
X86200Y-63050D01*
X87900Y-63550D02*
X87900Y-63700D01*
X87618Y-61598D02*
X87880Y-61860D01*
X87880Y-61860D02*
X87900Y-63550D01*
X87077Y-61598D02*
X87618Y-61598D01*
X87500Y-64100D02*
X87500Y-64500D01*
X87900Y-63700D02*
X87500Y-64100D01*
X84855Y-61360D02*
X84430Y-61360D01*
X84873Y-61342D02*
X84855Y-61360D01*
X83850Y-48700D02*
X83450Y-48700D01*
X84873Y-61598D02*
X84861Y-61610D01*
X83630Y-61610D02*
X83380Y-61860D01*
X84861Y-61610D02*
X83630Y-61610D01*
X82830Y-50270D02*
X83380Y-50270D01*
X82750Y-50350D02*
X82830Y-50270D01*
X83380Y-50270D02*
X83450Y-50200D01*
X83450Y-50200D02*
X83450Y-49700D01*
X84867Y-61860D02*
X83880Y-61860D01*
X83880Y-61860D02*
X83730Y-62010D01*
X83450Y-56550D02*
X83850Y-56550D01*
X84867Y-61860D02*
X84873Y-61854D01*
X83850Y-57550D02*
X83450Y-57550D01*
X84130Y-62110D02*
X84873Y-62110D01*
X84755Y-53460D02*
X84280Y-53460D01*
X84280Y-53460D02*
X84280Y-53210D01*
X87980Y-53460D02*
X88130Y-53310D01*
X86730Y-53460D02*
X87230Y-53460D01*
X87230Y-53460D02*
X87980Y-53460D01*
X86655Y-53460D02*
X86730Y-53460D01*
X88130Y-53310D02*
X88130Y-53160D01*
X84805Y-53660D02*
X83630Y-53660D01*
X83630Y-53660D02*
X83630Y-53210D01*
X83830Y-59660D02*
X83980Y-59660D01*
X84494Y-60574D02*
X84873Y-60574D01*
X84380Y-60460D02*
X84494Y-60574D01*
X84380Y-60060D02*
X84380Y-60460D01*
X83980Y-59660D02*
X84380Y-60060D01*
G54D20*
X84873Y-60830D02*
X84853Y-60810D01*
X83880Y-60510D02*
X83830Y-60460D01*
X84030Y-60510D02*
X83880Y-60510D01*
G54D19*
X84330Y-60810D02*
X84030Y-60510D01*
X84853Y-60810D02*
X84330Y-60810D01*
G54D20*
X84873Y-61086D02*
X84849Y-61110D01*
X83880Y-61310D02*
X83830Y-61260D01*
G54D19*
X84180Y-61310D02*
X83880Y-61310D01*
X84280Y-61110D02*
X84180Y-61310D01*
X84849Y-61110D02*
X84280Y-61110D01*
X83650Y-63200D02*
X84900Y-63200D01*
X86099Y-62367D02*
X87077Y-62366D01*
X84900Y-63200D02*
X86099Y-62367D01*
X87530Y-62700D02*
X87530Y-62160D01*
X87480Y-62110D02*
X87530Y-62160D01*
X87077Y-62110D02*
X87480Y-62110D01*
X86100Y-62700D02*
X84900Y-63900D01*
X84900Y-63900D02*
X83650Y-63900D01*
X87530Y-62700D02*
X86100Y-62700D01*
G54D22*
X87077Y-60574D02*
X87077Y-59266D01*
X86548Y-58737D02*
X84917Y-58737D01*
X87077Y-59266D02*
X86548Y-58737D01*
X82929Y-58891D02*
X81235Y-60585D01*
X84763Y-58891D02*
X82929Y-58891D01*
X84917Y-58737D02*
X84763Y-58891D01*
G54D19*
X85430Y-53860D02*
X85430Y-54310D01*
X85430Y-54310D02*
X85430Y-54660D01*
X84905Y-53860D02*
X85430Y-53860D01*
X85080Y-54660D02*
X85430Y-54660D01*
X85430Y-54660D02*
X85780Y-54660D01*
G54D10*
G36*
X88510Y-55060D02*
X87110Y-55060D01*
X87110Y-55810D01*
X86145Y-55810D01*
X86145Y-55412D01*
X86145Y-55300D01*
X86110Y-55265D01*
X85785Y-55265D01*
X85785Y-55490D01*
X85820Y-55525D01*
X85977Y-55525D01*
X86032Y-55524D01*
X86084Y-55503D01*
X86123Y-55464D01*
X86145Y-55412D01*
X86145Y-55810D01*
X85775Y-55810D01*
X85775Y-55490D01*
X85775Y-55265D01*
X85450Y-55265D01*
X85430Y-55285D01*
X85410Y-55265D01*
X85085Y-55265D01*
X85085Y-55490D01*
X85120Y-55525D01*
X85277Y-55525D01*
X85332Y-55524D01*
X85384Y-55503D01*
X85423Y-55464D01*
X85430Y-55449D01*
X85436Y-55464D01*
X85475Y-55503D01*
X85527Y-55524D01*
X85582Y-55525D01*
X85740Y-55525D01*
X85775Y-55490D01*
X85775Y-55810D01*
X85075Y-55810D01*
X85075Y-55490D01*
X85075Y-55265D01*
X84750Y-55265D01*
X84715Y-55300D01*
X84714Y-55412D01*
X84736Y-55464D01*
X84775Y-55503D01*
X84827Y-55524D01*
X84882Y-55525D01*
X85040Y-55525D01*
X85075Y-55490D01*
X85075Y-55810D01*
X84640Y-55810D01*
X84640Y-54960D01*
X84275Y-54960D01*
X84275Y-54840D01*
X84275Y-54615D01*
X83960Y-54615D01*
X83950Y-54615D01*
X83635Y-54615D01*
X83635Y-54840D01*
X83670Y-54875D01*
X83827Y-54875D01*
X83882Y-54874D01*
X83934Y-54853D01*
X83955Y-54832D01*
X83975Y-54853D01*
X84027Y-54874D01*
X84082Y-54875D01*
X84240Y-54875D01*
X84275Y-54840D01*
X84275Y-54960D01*
X83490Y-54960D01*
X83490Y-54875D01*
X83590Y-54875D01*
X83625Y-54840D01*
X83625Y-54615D01*
X83617Y-54615D01*
X83617Y-54605D01*
X83625Y-54605D01*
X83625Y-54597D01*
X83635Y-54597D01*
X83635Y-54605D01*
X83950Y-54605D01*
X83960Y-54605D01*
X84275Y-54605D01*
X84275Y-54597D01*
X84285Y-54597D01*
X84285Y-54605D01*
X84292Y-54605D01*
X84292Y-54615D01*
X84285Y-54615D01*
X84285Y-54840D01*
X84320Y-54875D01*
X84477Y-54875D01*
X84532Y-54874D01*
X84584Y-54853D01*
X84614Y-54823D01*
X84614Y-54832D01*
X84651Y-54920D01*
X84718Y-54988D01*
X84780Y-55014D01*
X84775Y-55016D01*
X84736Y-55055D01*
X84714Y-55107D01*
X84715Y-55220D01*
X84750Y-55255D01*
X85075Y-55255D01*
X85075Y-55247D01*
X85085Y-55247D01*
X85085Y-55255D01*
X85410Y-55255D01*
X85430Y-55235D01*
X85450Y-55255D01*
X85775Y-55255D01*
X85775Y-55247D01*
X85785Y-55247D01*
X85785Y-55255D01*
X86110Y-55255D01*
X86145Y-55220D01*
X86145Y-55107D01*
X86123Y-55055D01*
X86084Y-55016D01*
X86078Y-55014D01*
X86140Y-54988D01*
X86208Y-54921D01*
X86244Y-54832D01*
X86245Y-54737D01*
X86245Y-54487D01*
X86208Y-54399D01*
X86141Y-54331D01*
X86052Y-54295D01*
X85957Y-54294D01*
X85795Y-54294D01*
X85795Y-54237D01*
X85739Y-54103D01*
X85710Y-54073D01*
X85710Y-53860D01*
X85688Y-53752D01*
X85627Y-53662D01*
X85537Y-53601D01*
X85430Y-53580D01*
X85342Y-53580D01*
X85342Y-53559D01*
X85341Y-53559D01*
X85342Y-53465D01*
X85342Y-53359D01*
X85305Y-53271D01*
X85242Y-53207D01*
X85242Y-53179D01*
X85220Y-53127D01*
X85181Y-53088D01*
X85129Y-53067D01*
X85074Y-53066D01*
X84945Y-53067D01*
X84910Y-53102D01*
X84910Y-53166D01*
X84900Y-53166D01*
X84900Y-53102D01*
X84865Y-53067D01*
X84745Y-53066D01*
X84745Y-53040D01*
X86285Y-53040D01*
X86254Y-53070D01*
X86218Y-53159D01*
X86217Y-53254D01*
X86217Y-53360D01*
X86218Y-53360D01*
X86217Y-53454D01*
X86217Y-53560D01*
X86218Y-53560D01*
X86217Y-53654D01*
X86217Y-53760D01*
X86218Y-53760D01*
X86217Y-53854D01*
X86217Y-53960D01*
X86218Y-53960D01*
X86217Y-54054D01*
X86217Y-54160D01*
X86254Y-54248D01*
X86321Y-54316D01*
X86410Y-54352D01*
X86505Y-54353D01*
X86899Y-54353D01*
X86931Y-54340D01*
X87034Y-54340D01*
X87034Y-54372D01*
X87090Y-54506D01*
X87192Y-54609D01*
X87327Y-54664D01*
X87472Y-54665D01*
X87606Y-54609D01*
X87709Y-54507D01*
X87764Y-54372D01*
X87765Y-54280D01*
X87863Y-54280D01*
X87942Y-54359D01*
X88077Y-54414D01*
X88222Y-54415D01*
X88356Y-54359D01*
X88459Y-54257D01*
X88510Y-54134D01*
X88510Y-55060D01*
X88510Y-55060D01*
G37*
G54D19*
X88510Y-55060D02*
X87110Y-55060D01*
X87110Y-55810D01*
X86145Y-55810D01*
X86145Y-55412D01*
X86145Y-55300D01*
X86110Y-55265D01*
X85785Y-55265D01*
X85785Y-55490D01*
X85820Y-55525D01*
X85977Y-55525D01*
X86032Y-55524D01*
X86084Y-55503D01*
X86123Y-55464D01*
X86145Y-55412D01*
X86145Y-55810D01*
X85775Y-55810D01*
X85775Y-55490D01*
X85775Y-55265D01*
X85450Y-55265D01*
X85430Y-55285D01*
X85410Y-55265D01*
X85085Y-55265D01*
X85085Y-55490D01*
X85120Y-55525D01*
X85277Y-55525D01*
X85332Y-55524D01*
X85384Y-55503D01*
X85423Y-55464D01*
X85430Y-55449D01*
X85436Y-55464D01*
X85475Y-55503D01*
X85527Y-55524D01*
X85582Y-55525D01*
X85740Y-55525D01*
X85775Y-55490D01*
X85775Y-55810D01*
X85075Y-55810D01*
X85075Y-55490D01*
X85075Y-55265D01*
X84750Y-55265D01*
X84715Y-55300D01*
X84714Y-55412D01*
X84736Y-55464D01*
X84775Y-55503D01*
X84827Y-55524D01*
X84882Y-55525D01*
X85040Y-55525D01*
X85075Y-55490D01*
X85075Y-55810D01*
X84640Y-55810D01*
X84640Y-54960D01*
X84275Y-54960D01*
X84275Y-54840D01*
X84275Y-54615D01*
X83960Y-54615D01*
X83950Y-54615D01*
X83635Y-54615D01*
X83635Y-54840D01*
X83670Y-54875D01*
X83827Y-54875D01*
X83882Y-54874D01*
X83934Y-54853D01*
X83955Y-54832D01*
X83975Y-54853D01*
X84027Y-54874D01*
X84082Y-54875D01*
X84240Y-54875D01*
X84275Y-54840D01*
X84275Y-54960D01*
X83490Y-54960D01*
X83490Y-54875D01*
X83590Y-54875D01*
X83625Y-54840D01*
X83625Y-54615D01*
X83617Y-54615D01*
X83617Y-54605D01*
X83625Y-54605D01*
X83625Y-54597D01*
X83635Y-54597D01*
X83635Y-54605D01*
X83950Y-54605D01*
X83960Y-54605D01*
X84275Y-54605D01*
X84275Y-54597D01*
X84285Y-54597D01*
X84285Y-54605D01*
X84292Y-54605D01*
X84292Y-54615D01*
X84285Y-54615D01*
X84285Y-54840D01*
X84320Y-54875D01*
X84477Y-54875D01*
X84532Y-54874D01*
X84584Y-54853D01*
X84614Y-54823D01*
X84614Y-54832D01*
X84651Y-54920D01*
X84718Y-54988D01*
X84780Y-55014D01*
X84775Y-55016D01*
X84736Y-55055D01*
X84714Y-55107D01*
X84715Y-55220D01*
X84750Y-55255D01*
X85075Y-55255D01*
X85075Y-55247D01*
X85085Y-55247D01*
X85085Y-55255D01*
X85410Y-55255D01*
X85430Y-55235D01*
X85450Y-55255D01*
X85775Y-55255D01*
X85775Y-55247D01*
X85785Y-55247D01*
X85785Y-55255D01*
X86110Y-55255D01*
X86145Y-55220D01*
X86145Y-55107D01*
X86123Y-55055D01*
X86084Y-55016D01*
X86078Y-55014D01*
X86140Y-54988D01*
X86208Y-54921D01*
X86244Y-54832D01*
X86245Y-54737D01*
X86245Y-54487D01*
X86208Y-54399D01*
X86141Y-54331D01*
X86052Y-54295D01*
X85957Y-54294D01*
X85795Y-54294D01*
X85795Y-54237D01*
X85739Y-54103D01*
X85710Y-54073D01*
X85710Y-53860D01*
X85688Y-53752D01*
X85627Y-53662D01*
X85537Y-53601D01*
X85430Y-53580D01*
X85342Y-53580D01*
X85342Y-53559D01*
X85341Y-53559D01*
X85342Y-53465D01*
X85342Y-53359D01*
X85305Y-53271D01*
X85242Y-53207D01*
X85242Y-53179D01*
X85220Y-53127D01*
X85181Y-53088D01*
X85129Y-53067D01*
X85074Y-53066D01*
X84945Y-53067D01*
X84910Y-53102D01*
X84910Y-53166D01*
X84900Y-53166D01*
X84900Y-53102D01*
X84865Y-53067D01*
X84745Y-53066D01*
X84745Y-53040D01*
X86285Y-53040D01*
X86254Y-53070D01*
X86218Y-53159D01*
X86217Y-53254D01*
X86217Y-53360D01*
X86218Y-53360D01*
X86217Y-53454D01*
X86217Y-53560D01*
X86218Y-53560D01*
X86217Y-53654D01*
X86217Y-53760D01*
X86218Y-53760D01*
X86217Y-53854D01*
X86217Y-53960D01*
X86218Y-53960D01*
X86217Y-54054D01*
X86217Y-54160D01*
X86254Y-54248D01*
X86321Y-54316D01*
X86410Y-54352D01*
X86505Y-54353D01*
X86899Y-54353D01*
X86931Y-54340D01*
X87034Y-54340D01*
X87034Y-54372D01*
X87090Y-54506D01*
X87192Y-54609D01*
X87327Y-54664D01*
X87472Y-54665D01*
X87606Y-54609D01*
X87709Y-54507D01*
X87764Y-54372D01*
X87765Y-54280D01*
X87863Y-54280D01*
X87942Y-54359D01*
X88077Y-54414D01*
X88222Y-54415D01*
X88356Y-54359D01*
X88459Y-54257D01*
X88510Y-54134D01*
X88510Y-55060D01*
G54D10*
G36*
X86610Y-60395D02*
X86587Y-60451D01*
X86586Y-60546D01*
X86586Y-60696D01*
X86589Y-60701D01*
X86587Y-60707D01*
X86586Y-60802D01*
X86586Y-60952D01*
X86589Y-60957D01*
X86587Y-60963D01*
X86586Y-61058D01*
X86586Y-61208D01*
X86589Y-61213D01*
X86587Y-61219D01*
X86586Y-61314D01*
X86586Y-61464D01*
X86589Y-61469D01*
X86587Y-61475D01*
X86586Y-61570D01*
X86586Y-61720D01*
X86589Y-61725D01*
X86587Y-61731D01*
X86586Y-61826D01*
X86586Y-61976D01*
X86589Y-61981D01*
X86587Y-61987D01*
X86586Y-62082D01*
X86586Y-62086D01*
X86099Y-62087D01*
X86074Y-62092D01*
X86039Y-62092D01*
X86013Y-62104D01*
X85992Y-62108D01*
X85971Y-62122D01*
X85939Y-62136D01*
X84970Y-62810D01*
X83949Y-62810D01*
X83911Y-62771D01*
X83822Y-62735D01*
X83727Y-62734D01*
X83477Y-62734D01*
X83389Y-62771D01*
X83350Y-62810D01*
X83349Y-62810D01*
X83311Y-62771D01*
X83222Y-62735D01*
X83127Y-62734D01*
X82940Y-62734D01*
X82940Y-59325D01*
X82975Y-59290D01*
X83510Y-59290D01*
X83501Y-59298D01*
X83475Y-59360D01*
X83473Y-59355D01*
X83434Y-59316D01*
X83382Y-59294D01*
X83270Y-59295D01*
X83235Y-59330D01*
X83235Y-59655D01*
X83242Y-59655D01*
X83242Y-59665D01*
X83235Y-59665D01*
X83235Y-59990D01*
X83270Y-60025D01*
X83382Y-60025D01*
X83434Y-60003D01*
X83473Y-59964D01*
X83475Y-59958D01*
X83501Y-60020D01*
X83540Y-60060D01*
X83501Y-60098D01*
X83475Y-60160D01*
X83473Y-60155D01*
X83434Y-60116D01*
X83382Y-60094D01*
X83270Y-60095D01*
X83235Y-60130D01*
X83235Y-60455D01*
X83242Y-60455D01*
X83242Y-60465D01*
X83235Y-60465D01*
X83235Y-60790D01*
X83270Y-60825D01*
X83382Y-60825D01*
X83434Y-60803D01*
X83473Y-60764D01*
X83475Y-60758D01*
X83501Y-60820D01*
X83540Y-60860D01*
X83501Y-60898D01*
X83475Y-60960D01*
X83473Y-60955D01*
X83434Y-60916D01*
X83382Y-60894D01*
X83270Y-60895D01*
X83235Y-60930D01*
X83235Y-61255D01*
X83242Y-61255D01*
X83242Y-61265D01*
X83235Y-61265D01*
X83235Y-61272D01*
X83225Y-61272D01*
X83225Y-61265D01*
X83225Y-61255D01*
X83225Y-60930D01*
X83225Y-60790D01*
X83225Y-60465D01*
X83225Y-60455D01*
X83225Y-60130D01*
X83225Y-59990D01*
X83225Y-59665D01*
X83225Y-59655D01*
X83225Y-59330D01*
X83190Y-59295D01*
X83077Y-59294D01*
X83025Y-59316D01*
X82986Y-59355D01*
X82965Y-59407D01*
X82964Y-59462D01*
X82965Y-59620D01*
X83000Y-59655D01*
X83225Y-59655D01*
X83225Y-59665D01*
X83000Y-59665D01*
X82965Y-59700D01*
X82964Y-59857D01*
X82965Y-59912D01*
X82986Y-59964D01*
X83025Y-60003D01*
X83077Y-60025D01*
X83190Y-60025D01*
X83225Y-59990D01*
X83225Y-60130D01*
X83190Y-60095D01*
X83077Y-60094D01*
X83025Y-60116D01*
X82986Y-60155D01*
X82965Y-60207D01*
X82964Y-60262D01*
X82965Y-60420D01*
X83000Y-60455D01*
X83225Y-60455D01*
X83225Y-60465D01*
X83000Y-60465D01*
X82965Y-60500D01*
X82964Y-60657D01*
X82965Y-60712D01*
X82986Y-60764D01*
X83025Y-60803D01*
X83077Y-60825D01*
X83190Y-60825D01*
X83225Y-60790D01*
X83225Y-60930D01*
X83190Y-60895D01*
X83077Y-60894D01*
X83025Y-60916D01*
X82986Y-60955D01*
X82965Y-61007D01*
X82964Y-61062D01*
X82965Y-61220D01*
X83000Y-61255D01*
X83225Y-61255D01*
X83225Y-61265D01*
X83000Y-61265D01*
X82965Y-61300D01*
X82964Y-61457D01*
X82965Y-61512D01*
X82986Y-61564D01*
X83025Y-61603D01*
X83077Y-61625D01*
X83098Y-61625D01*
X83070Y-61652D01*
X83015Y-61787D01*
X83014Y-61932D01*
X83070Y-62066D01*
X83172Y-62169D01*
X83307Y-62224D01*
X83428Y-62225D01*
X83522Y-62319D01*
X83657Y-62374D01*
X83802Y-62375D01*
X83856Y-62352D01*
X83922Y-62419D01*
X84057Y-62474D01*
X84202Y-62475D01*
X84336Y-62419D01*
X84366Y-62390D01*
X84490Y-62390D01*
X84496Y-62392D01*
X84483Y-62406D01*
X84482Y-62468D01*
X84504Y-62520D01*
X84543Y-62559D01*
X84595Y-62580D01*
X84650Y-62581D01*
X84833Y-62581D01*
X84868Y-62546D01*
X84868Y-62425D01*
X84878Y-62425D01*
X84878Y-62546D01*
X84913Y-62581D01*
X85095Y-62581D01*
X85150Y-62580D01*
X85202Y-62559D01*
X85241Y-62520D01*
X85263Y-62468D01*
X85263Y-62406D01*
X85249Y-62392D01*
X85258Y-62388D01*
X85326Y-62321D01*
X85362Y-62232D01*
X85363Y-62137D01*
X85363Y-61987D01*
X85360Y-61982D01*
X85362Y-61976D01*
X85363Y-61881D01*
X85363Y-61731D01*
X85360Y-61726D01*
X85362Y-61720D01*
X85363Y-61625D01*
X85363Y-61475D01*
X85360Y-61470D01*
X85362Y-61464D01*
X85363Y-61369D01*
X85363Y-61219D01*
X85360Y-61214D01*
X85362Y-61208D01*
X85363Y-61113D01*
X85363Y-60963D01*
X85360Y-60958D01*
X85362Y-60952D01*
X85363Y-60857D01*
X85363Y-60707D01*
X85360Y-60702D01*
X85362Y-60696D01*
X85363Y-60601D01*
X85363Y-60451D01*
X85326Y-60363D01*
X85259Y-60295D01*
X85170Y-60259D01*
X85075Y-60258D01*
X84660Y-60258D01*
X84660Y-60060D01*
X84659Y-60059D01*
X84638Y-59952D01*
X84638Y-59952D01*
X84618Y-59922D01*
X84577Y-59862D01*
X84577Y-59862D01*
X84195Y-59479D01*
X84195Y-59387D01*
X84158Y-59299D01*
X84149Y-59290D01*
X86610Y-59290D01*
X86610Y-60395D01*
X86610Y-60395D01*
G37*
G54D19*
X86610Y-60395D02*
X86587Y-60451D01*
X86586Y-60546D01*
X86586Y-60696D01*
X86589Y-60701D01*
X86587Y-60707D01*
X86586Y-60802D01*
X86586Y-60952D01*
X86589Y-60957D01*
X86587Y-60963D01*
X86586Y-61058D01*
X86586Y-61208D01*
X86589Y-61213D01*
X86587Y-61219D01*
X86586Y-61314D01*
X86586Y-61464D01*
X86589Y-61469D01*
X86587Y-61475D01*
X86586Y-61570D01*
X86586Y-61720D01*
X86589Y-61725D01*
X86587Y-61731D01*
X86586Y-61826D01*
X86586Y-61976D01*
X86589Y-61981D01*
X86587Y-61987D01*
X86586Y-62082D01*
X86586Y-62086D01*
X86099Y-62087D01*
X86074Y-62092D01*
X86039Y-62092D01*
X86013Y-62104D01*
X85992Y-62108D01*
X85971Y-62122D01*
X85939Y-62136D01*
X84970Y-62810D01*
X83949Y-62810D01*
X83911Y-62771D01*
X83822Y-62735D01*
X83727Y-62734D01*
X83477Y-62734D01*
X83389Y-62771D01*
X83350Y-62810D01*
X83349Y-62810D01*
X83311Y-62771D01*
X83222Y-62735D01*
X83127Y-62734D01*
X82940Y-62734D01*
X82940Y-59325D01*
X82975Y-59290D01*
X83510Y-59290D01*
X83501Y-59298D01*
X83475Y-59360D01*
X83473Y-59355D01*
X83434Y-59316D01*
X83382Y-59294D01*
X83270Y-59295D01*
X83235Y-59330D01*
X83235Y-59655D01*
X83242Y-59655D01*
X83242Y-59665D01*
X83235Y-59665D01*
X83235Y-59990D01*
X83270Y-60025D01*
X83382Y-60025D01*
X83434Y-60003D01*
X83473Y-59964D01*
X83475Y-59958D01*
X83501Y-60020D01*
X83540Y-60060D01*
X83501Y-60098D01*
X83475Y-60160D01*
X83473Y-60155D01*
X83434Y-60116D01*
X83382Y-60094D01*
X83270Y-60095D01*
X83235Y-60130D01*
X83235Y-60455D01*
X83242Y-60455D01*
X83242Y-60465D01*
X83235Y-60465D01*
X83235Y-60790D01*
X83270Y-60825D01*
X83382Y-60825D01*
X83434Y-60803D01*
X83473Y-60764D01*
X83475Y-60758D01*
X83501Y-60820D01*
X83540Y-60860D01*
X83501Y-60898D01*
X83475Y-60960D01*
X83473Y-60955D01*
X83434Y-60916D01*
X83382Y-60894D01*
X83270Y-60895D01*
X83235Y-60930D01*
X83235Y-61255D01*
X83242Y-61255D01*
X83242Y-61265D01*
X83235Y-61265D01*
X83235Y-61272D01*
X83225Y-61272D01*
X83225Y-61265D01*
X83225Y-61255D01*
X83225Y-60930D01*
X83225Y-60790D01*
X83225Y-60465D01*
X83225Y-60455D01*
X83225Y-60130D01*
X83225Y-59990D01*
X83225Y-59665D01*
X83225Y-59655D01*
X83225Y-59330D01*
X83190Y-59295D01*
X83077Y-59294D01*
X83025Y-59316D01*
X82986Y-59355D01*
X82965Y-59407D01*
X82964Y-59462D01*
X82965Y-59620D01*
X83000Y-59655D01*
X83225Y-59655D01*
X83225Y-59665D01*
X83000Y-59665D01*
X82965Y-59700D01*
X82964Y-59857D01*
X82965Y-59912D01*
X82986Y-59964D01*
X83025Y-60003D01*
X83077Y-60025D01*
X83190Y-60025D01*
X83225Y-59990D01*
X83225Y-60130D01*
X83190Y-60095D01*
X83077Y-60094D01*
X83025Y-60116D01*
X82986Y-60155D01*
X82965Y-60207D01*
X82964Y-60262D01*
X82965Y-60420D01*
X83000Y-60455D01*
X83225Y-60455D01*
X83225Y-60465D01*
X83000Y-60465D01*
X82965Y-60500D01*
X82964Y-60657D01*
X82965Y-60712D01*
X82986Y-60764D01*
X83025Y-60803D01*
X83077Y-60825D01*
X83190Y-60825D01*
X83225Y-60790D01*
X83225Y-60930D01*
X83190Y-60895D01*
X83077Y-60894D01*
X83025Y-60916D01*
X82986Y-60955D01*
X82965Y-61007D01*
X82964Y-61062D01*
X82965Y-61220D01*
X83000Y-61255D01*
X83225Y-61255D01*
X83225Y-61265D01*
X83000Y-61265D01*
X82965Y-61300D01*
X82964Y-61457D01*
X82965Y-61512D01*
X82986Y-61564D01*
X83025Y-61603D01*
X83077Y-61625D01*
X83098Y-61625D01*
X83070Y-61652D01*
X83015Y-61787D01*
X83014Y-61932D01*
X83070Y-62066D01*
X83172Y-62169D01*
X83307Y-62224D01*
X83428Y-62225D01*
X83522Y-62319D01*
X83657Y-62374D01*
X83802Y-62375D01*
X83856Y-62352D01*
X83922Y-62419D01*
X84057Y-62474D01*
X84202Y-62475D01*
X84336Y-62419D01*
X84366Y-62390D01*
X84490Y-62390D01*
X84496Y-62392D01*
X84483Y-62406D01*
X84482Y-62468D01*
X84504Y-62520D01*
X84543Y-62559D01*
X84595Y-62580D01*
X84650Y-62581D01*
X84833Y-62581D01*
X84868Y-62546D01*
X84868Y-62425D01*
X84878Y-62425D01*
X84878Y-62546D01*
X84913Y-62581D01*
X85095Y-62581D01*
X85150Y-62580D01*
X85202Y-62559D01*
X85241Y-62520D01*
X85263Y-62468D01*
X85263Y-62406D01*
X85249Y-62392D01*
X85258Y-62388D01*
X85326Y-62321D01*
X85362Y-62232D01*
X85363Y-62137D01*
X85363Y-61987D01*
X85360Y-61982D01*
X85362Y-61976D01*
X85363Y-61881D01*
X85363Y-61731D01*
X85360Y-61726D01*
X85362Y-61720D01*
X85363Y-61625D01*
X85363Y-61475D01*
X85360Y-61470D01*
X85362Y-61464D01*
X85363Y-61369D01*
X85363Y-61219D01*
X85360Y-61214D01*
X85362Y-61208D01*
X85363Y-61113D01*
X85363Y-60963D01*
X85360Y-60958D01*
X85362Y-60952D01*
X85363Y-60857D01*
X85363Y-60707D01*
X85360Y-60702D01*
X85362Y-60696D01*
X85363Y-60601D01*
X85363Y-60451D01*
X85326Y-60363D01*
X85259Y-60295D01*
X85170Y-60259D01*
X85075Y-60258D01*
X84660Y-60258D01*
X84660Y-60060D01*
X84659Y-60059D01*
X84638Y-59952D01*
X84638Y-59952D01*
X84618Y-59922D01*
X84577Y-59862D01*
X84577Y-59862D01*
X84195Y-59479D01*
X84195Y-59387D01*
X84158Y-59299D01*
X84149Y-59290D01*
X86610Y-59290D01*
X86610Y-60395D01*
M02*
