G04 (created by PCBNEW (2013-07-07 BZR 4022)-stable) date 12/8/2013 11:31:44 AM*
%MOIN*%
G04 Gerber Fmt 3.4, Leading zero omitted, Abs format*
%FSLAX34Y34*%
G01*
G70*
G90*
G04 APERTURE LIST*
%ADD10C,0.00590551*%
%ADD11O,0.0274X0.0549*%
%ADD12R,0.06X0.06*%
%ADD13C,0.06*%
%ADD14C,0.025*%
%ADD15C,0.006*%
%ADD16C,0.008*%
%ADD17C,0.015*%
G04 APERTURE END LIST*
G54D10*
G54D11*
X86773Y-65389D03*
X86281Y-65389D03*
X85789Y-65389D03*
X85297Y-65389D03*
X84805Y-65389D03*
X84313Y-65389D03*
G54D12*
X89000Y-58586D03*
G54D13*
X89000Y-57586D03*
X89000Y-56586D03*
X89000Y-55586D03*
G54D12*
X82000Y-58586D03*
G54D13*
X82000Y-57586D03*
X82000Y-56586D03*
X82000Y-55586D03*
G54D12*
X89000Y-50712D03*
G54D13*
X89000Y-49712D03*
X89000Y-48712D03*
X89000Y-47712D03*
G54D12*
X82000Y-50712D03*
G54D13*
X82000Y-49712D03*
X82000Y-48712D03*
X82000Y-47712D03*
G54D12*
X89000Y-66460D03*
G54D13*
X89000Y-65460D03*
X89000Y-64460D03*
X89000Y-63460D03*
G54D12*
X82000Y-66460D03*
G54D13*
X82000Y-65460D03*
X82000Y-64460D03*
X82000Y-63460D03*
G54D14*
X89000Y-59950D03*
X87400Y-54300D03*
X87800Y-53700D03*
X87800Y-61100D03*
X88150Y-54050D03*
X88150Y-60850D03*
X84007Y-65964D03*
X83950Y-62550D03*
X85470Y-59493D03*
X86392Y-55562D03*
X84430Y-61360D03*
X83850Y-48700D03*
X83380Y-61860D03*
X82750Y-50350D03*
X83730Y-62010D03*
X83850Y-56550D03*
X83850Y-57550D03*
X84130Y-62110D03*
X81235Y-60585D03*
X84917Y-58737D03*
X85430Y-54310D03*
G54D15*
X89000Y-58586D02*
X90000Y-58586D01*
X89000Y-66460D02*
X89889Y-66460D01*
X89889Y-66460D02*
X90000Y-66350D01*
X90000Y-66350D02*
X90000Y-58586D01*
X90000Y-51712D02*
X89000Y-50712D01*
X90000Y-58586D02*
X90000Y-51712D01*
X89000Y-63460D02*
X89000Y-59950D01*
G54D16*
X84805Y-65389D02*
X84805Y-64805D01*
X84330Y-64330D02*
X84330Y-64330D01*
X84805Y-64805D02*
X84330Y-64330D01*
X84319Y-63000D02*
X84319Y-62631D01*
X87400Y-59550D02*
X87400Y-58500D01*
X84319Y-62631D02*
X87400Y-59550D01*
X84330Y-64358D02*
X84330Y-64330D01*
X84330Y-64330D02*
X84319Y-63000D01*
X84319Y-63000D02*
X84319Y-62981D01*
X87400Y-58500D02*
X87400Y-54300D01*
X87400Y-58550D02*
X87400Y-58500D01*
X85297Y-65389D02*
X85297Y-65072D01*
X87790Y-61110D02*
X87800Y-61100D01*
X85114Y-64889D02*
X85107Y-62757D01*
X85107Y-62757D02*
X86754Y-61110D01*
X86754Y-61110D02*
X87790Y-61110D01*
X85297Y-65072D02*
X85114Y-64889D01*
X87800Y-61100D02*
X87800Y-53700D01*
X85789Y-65389D02*
X85789Y-65061D01*
X85893Y-62757D02*
X87200Y-61450D01*
X87200Y-61450D02*
X87950Y-61450D01*
X87950Y-61450D02*
X88150Y-61250D01*
X88150Y-61250D02*
X88150Y-60850D01*
X85889Y-64960D02*
X85893Y-62757D01*
X85789Y-65061D02*
X85889Y-64960D01*
X88150Y-60850D02*
X88150Y-54050D01*
G54D17*
X84007Y-65964D02*
X83957Y-65914D01*
X83950Y-62550D02*
X83957Y-65914D01*
X85470Y-56484D02*
X85470Y-59493D01*
X86392Y-55562D02*
X85470Y-56484D01*
G54D16*
X84430Y-61360D02*
X83760Y-61360D01*
X83850Y-50150D02*
X83850Y-48700D01*
X82900Y-51100D02*
X83850Y-50150D01*
X82900Y-55200D02*
X82900Y-51100D01*
X84100Y-56400D02*
X82900Y-55200D01*
X84100Y-57800D02*
X84100Y-56400D01*
X83500Y-58400D02*
X84100Y-57800D01*
X83500Y-61100D02*
X83500Y-58400D01*
X83760Y-61360D02*
X83500Y-61100D01*
X82750Y-61100D02*
X82750Y-50350D01*
X83380Y-61860D02*
X83380Y-61830D01*
X83380Y-61830D02*
X82750Y-61100D01*
X83730Y-62010D02*
X83730Y-61880D01*
X83730Y-57010D02*
X83850Y-56550D01*
X82950Y-57790D02*
X83730Y-57010D01*
X82950Y-61100D02*
X82950Y-57790D01*
X83730Y-61880D02*
X82950Y-61100D01*
X83200Y-58500D02*
X83200Y-58200D01*
X83200Y-58200D02*
X83850Y-57550D01*
X84130Y-62110D02*
X84130Y-62030D01*
X83200Y-61100D02*
X83200Y-58500D01*
X83200Y-58500D02*
X83200Y-58490D01*
X84130Y-62030D02*
X83200Y-61100D01*
G54D17*
X81450Y-67000D02*
X86551Y-67000D01*
X81450Y-67000D02*
X81250Y-66800D01*
X81250Y-62710D02*
X81250Y-66800D01*
X86773Y-66777D02*
X86773Y-65389D01*
X86551Y-67000D02*
X86773Y-66777D01*
X81250Y-47804D02*
X81908Y-47804D01*
X81908Y-47804D02*
X82000Y-47712D01*
X85430Y-54310D02*
X85430Y-55950D01*
X84917Y-56463D02*
X84917Y-58737D01*
X85430Y-55950D02*
X84917Y-56463D01*
X81235Y-60585D02*
X81250Y-60585D01*
X81250Y-60585D02*
X81235Y-60585D01*
X81235Y-60585D02*
X81250Y-60585D01*
X82000Y-55586D02*
X81313Y-55586D01*
X81313Y-55586D02*
X81250Y-55650D01*
X81250Y-47800D02*
X81250Y-47804D01*
X81250Y-47804D02*
X81250Y-54300D01*
X81250Y-62710D02*
X82000Y-63460D01*
X81250Y-54300D02*
X81250Y-55650D01*
X81250Y-55650D02*
X81250Y-60585D01*
X81250Y-60585D02*
X81250Y-62710D01*
M02*
