M48
INCH,TZ
T1C0.013
T2C0.020
T3C0.040
%
G90
G05
T1
X81235Y-60585
X82750Y-50350
X83380Y-61860
X83730Y-62010
X83850Y-48700
X83850Y-56550
X83850Y-57550
X83950Y-62550
X84008Y-65965
X84130Y-62110
X84430Y-61360
X84917Y-58737
X85430Y-54310
X85470Y-59493
X86392Y-55562
X87400Y-54300
X87800Y-53700
X87800Y-61100
X88150Y-54050
X88150Y-60850
X89000Y-59950
T2
X84313Y-65390
X84805Y-65390
X85297Y-65390
X85789Y-65390
X86281Y-65390
X86773Y-65390
T3
X82000Y-47713
X82000Y-48713
X82000Y-49713
X82000Y-50713
X82000Y-55587
X82000Y-56587
X82000Y-57587
X82000Y-58587
X82000Y-63461
X82000Y-64461
X82000Y-65461
X82000Y-66461
X89000Y-47713
X89000Y-48713
X89000Y-49713
X89000Y-50713
X89000Y-55587
X89000Y-56587
X89000Y-57587
X89000Y-58587
X89000Y-63461
X89000Y-64461
X89000Y-65461
X89000Y-66461
T0
M30
