G04 (created by PCBNEW (2013-07-07 BZR 4022)-stable) date 12/8/2013 11:31:44 AM*
%MOIN*%
G04 Gerber Fmt 3.4, Leading zero omitted, Abs format*
%FSLAX34Y34*%
G01*
G70*
G90*
G04 APERTURE LIST*
%ADD10C,0.00590551*%
%ADD11C,0.0019685*%
%ADD12R,0.05X0.015*%
%ADD13R,0.045X0.025*%
%ADD14R,0.025X0.045*%
%ADD15R,0.06X0.06*%
%ADD16C,0.06*%
%ADD17R,0.0394X0.0106*%
G04 APERTURE END LIST*
G54D10*
G54D11*
X85033Y-52921D02*
X84966Y-52921D01*
X85000Y-52921D02*
X85000Y-52803D01*
X84988Y-52820D01*
X84977Y-52831D01*
X84966Y-52837D01*
X85112Y-60284D02*
X85044Y-60284D01*
X85078Y-60284D02*
X85078Y-60165D01*
X85067Y-60182D01*
X85056Y-60194D01*
X85044Y-60199D01*
G54D12*
X84873Y-60574D03*
X84873Y-60830D03*
X84873Y-61086D03*
X84873Y-61342D03*
X84873Y-61598D03*
X84873Y-61854D03*
X84873Y-62110D03*
X84873Y-62366D03*
X87077Y-62366D03*
X87077Y-62110D03*
X87077Y-61854D03*
X87077Y-61598D03*
X87077Y-61342D03*
X87077Y-61086D03*
X87077Y-60830D03*
X87077Y-60574D03*
G54D13*
X83630Y-54010D03*
X83630Y-54610D03*
X84280Y-54010D03*
X84280Y-54610D03*
X85780Y-54660D03*
X85780Y-55260D03*
X85080Y-54660D03*
X85080Y-55260D03*
G54D14*
X83050Y-63900D03*
X83650Y-63900D03*
X83050Y-64650D03*
X83650Y-64650D03*
G54D13*
X84280Y-53210D03*
X84280Y-52610D03*
X87430Y-52560D03*
X87430Y-53160D03*
G54D14*
X88100Y-64500D03*
X87500Y-64500D03*
X82850Y-57550D03*
X83450Y-57550D03*
X82850Y-56550D03*
X83450Y-56550D03*
X82850Y-49700D03*
X83450Y-49700D03*
X82850Y-48700D03*
X83450Y-48700D03*
X83050Y-63200D03*
X83650Y-63200D03*
G54D13*
X83630Y-53210D03*
X83630Y-52610D03*
X88130Y-52560D03*
X88130Y-53160D03*
G54D14*
X83230Y-61260D03*
X83830Y-61260D03*
X83230Y-60460D03*
X83830Y-60460D03*
X83230Y-59660D03*
X83830Y-59660D03*
G54D15*
X89000Y-58586D03*
G54D16*
X89000Y-57586D03*
X89000Y-56586D03*
X89000Y-55586D03*
G54D15*
X82000Y-58586D03*
G54D16*
X82000Y-57586D03*
X82000Y-56586D03*
X82000Y-55586D03*
G54D15*
X89000Y-50712D03*
G54D16*
X89000Y-49712D03*
X89000Y-48712D03*
X89000Y-47712D03*
G54D15*
X82000Y-50712D03*
G54D16*
X82000Y-49712D03*
X82000Y-48712D03*
X82000Y-47712D03*
G54D15*
X89000Y-66460D03*
G54D16*
X89000Y-65460D03*
X89000Y-64460D03*
X89000Y-63460D03*
G54D15*
X82000Y-66460D03*
G54D16*
X82000Y-65460D03*
X82000Y-64460D03*
X82000Y-63460D03*
G54D17*
X84905Y-53260D03*
X84905Y-53460D03*
X84905Y-53660D03*
X84905Y-53860D03*
X84905Y-54060D03*
X86655Y-54060D03*
X86655Y-53860D03*
X86655Y-53660D03*
X86655Y-53460D03*
X86655Y-53260D03*
M02*
