G04 (created by PCBNEW (2013-07-07 BZR 4022)-stable) date 12/26/2013 7:03:51 PM*
%MOIN*%
G04 Gerber Fmt 3.4, Leading zero omitted, Abs format*
%FSLAX34Y34*%
G01*
G70*
G90*
G04 APERTURE LIST*
%ADD10C,0.00590551*%
%ADD11R,0.055X0.055*%
%ADD12C,0.055*%
%ADD13R,0.0275591X0.0393701*%
%ADD14C,0.02*%
%ADD15C,0.00295*%
%ADD16C,0.01*%
G04 APERTURE END LIST*
G54D10*
G54D11*
X59000Y-38901D03*
G54D12*
X59000Y-37901D03*
X59000Y-36901D03*
X59000Y-35901D03*
G54D11*
X66000Y-38901D03*
G54D12*
X66000Y-37901D03*
X66000Y-36901D03*
X66000Y-35901D03*
G54D13*
X61082Y-38031D03*
X60728Y-38031D03*
X61082Y-36771D03*
X60728Y-36771D03*
X64232Y-38031D03*
X63877Y-38031D03*
X64232Y-36771D03*
X63877Y-36771D03*
G54D14*
X65039Y-35984D03*
X65354Y-38897D03*
G54D15*
X66000Y-35901D02*
X65039Y-35905D01*
X65039Y-35905D02*
X65039Y-35984D01*
G54D16*
X66000Y-38901D02*
X65354Y-38897D01*
X59000Y-36901D02*
X59106Y-36901D01*
X60236Y-38031D02*
X60728Y-38031D01*
X59106Y-36901D02*
X60236Y-38031D01*
X59000Y-37901D02*
X59594Y-37901D01*
X61082Y-38562D02*
X61082Y-38031D01*
X61062Y-38582D02*
X61082Y-38562D01*
X60275Y-38582D02*
X61062Y-38582D01*
X59594Y-37901D02*
X60275Y-38582D01*
X63877Y-38031D02*
X63877Y-38897D01*
X63877Y-38897D02*
X63779Y-39015D01*
X63779Y-39015D02*
X59271Y-39015D01*
X59271Y-39015D02*
X59000Y-38901D01*
X64232Y-38031D02*
X64232Y-38484D01*
X65314Y-37586D02*
X66000Y-36901D01*
X65314Y-38110D02*
X65314Y-37586D01*
X64881Y-38543D02*
X65314Y-38110D01*
X64291Y-38543D02*
X64881Y-38543D01*
X64232Y-38484D02*
X64291Y-38543D01*
X60728Y-36771D02*
X59803Y-36771D01*
X59000Y-35968D02*
X59000Y-35901D01*
X59803Y-36771D02*
X59000Y-35968D01*
X63877Y-36771D02*
X64232Y-36771D01*
X60728Y-36771D02*
X61082Y-36771D01*
G54D15*
X63877Y-36771D02*
X61082Y-36771D01*
M02*
