M48
INCH,TZ
T1C0.013
T2C0.039
T3C0.043
%
G90
G05
T1
X76300Y-51200
X80100Y-53100
X80200Y-51000
X81100Y-51500
X81400Y-53100
X82000Y-49500
X82100Y-51700
X84100Y-48000
X84100Y-48500
X84100Y-49300
X84900Y-53500
T2
X75300Y-55200
X76300Y-55200
X77700Y-54600
X81900Y-54600
T3
X74000Y-46500
X74000Y-47500
X74000Y-51500
X74000Y-52500
X74000Y-53500
X74500Y-46500
X74500Y-47500
X74500Y-51500
X74500Y-52500
X74500Y-53500
X85500Y-46500
X85500Y-47500
X85500Y-51500
X85500Y-52500
X85500Y-55500
X86000Y-46500
X86000Y-47500
X86000Y-51500
X86000Y-52500
X86000Y-55500
T0
M30
