%FSLAX46Y46*%
G04 Gerber Fmt 4.6, Leading zero omitted, Abs format (unit mm)*
G04 Created by KiCad (PCBNEW (2014-10-27 BZR 5228)-product) date 6/17/2015 7:46:51 PM*
%MOMM*%
G01*
G04 APERTURE LIST*
%ADD10C,0.150000*%
%ADD11C,1.506220*%
%ADD12O,1.506220X3.014980*%
%ADD13R,1.270000X1.701800*%
%ADD14O,3.810000X1.701800*%
%ADD15C,0.508000*%
%ADD16C,0.381000*%
G04 APERTURE END LIST*
D10*
D11*
X208026000Y-138684000D03*
X197358000Y-138684000D03*
D12*
X191262000Y-140208000D03*
X193802000Y-140208000D03*
D13*
X187960000Y-118110000D03*
X189230000Y-118110000D03*
D14*
X189260000Y-118110000D03*
D13*
X187960000Y-120650000D03*
X189230000Y-120650000D03*
D14*
X189260000Y-120650000D03*
D13*
X218440000Y-140970000D03*
X217170000Y-140970000D03*
D14*
X217140000Y-140970000D03*
D13*
X218440000Y-130810000D03*
X217170000Y-130810000D03*
D14*
X217140000Y-130810000D03*
D13*
X218440000Y-133350000D03*
X217170000Y-133350000D03*
D14*
X217140000Y-133350000D03*
D13*
X187960000Y-130810000D03*
X189230000Y-130810000D03*
D14*
X189260000Y-130810000D03*
D13*
X187960000Y-133350000D03*
X189230000Y-133350000D03*
D14*
X189260000Y-133350000D03*
D13*
X187960000Y-135890000D03*
X189230000Y-135890000D03*
D14*
X189260000Y-135890000D03*
D13*
X218440000Y-118110000D03*
X217170000Y-118110000D03*
D14*
X217140000Y-118110000D03*
D13*
X218440000Y-120650000D03*
X217170000Y-120650000D03*
D14*
X217140000Y-120650000D03*
D15*
X208534000Y-131318000D03*
X213614000Y-123190000D03*
X208280000Y-125730000D03*
X193802000Y-130048000D03*
X215646000Y-135890000D03*
X213614000Y-125222000D03*
X203454000Y-134874000D03*
X203708000Y-129540000D03*
X206756000Y-134874000D03*
X205994000Y-130810000D03*
X213614000Y-121920000D03*
D16*
X208534000Y-131318000D02*
X211328000Y-128524000D01*
X211328000Y-128524000D02*
X211328000Y-125476000D01*
X211328000Y-125476000D02*
X213614000Y-123190000D01*
X208280000Y-125730000D02*
X193802000Y-125730000D01*
X193802000Y-125730000D02*
X193802000Y-130048000D01*
X215646000Y-135890000D02*
X213614000Y-133858000D01*
X213614000Y-133858000D02*
X213614000Y-125222000D01*
X203454000Y-134874000D02*
X203708000Y-134620000D01*
X203708000Y-134620000D02*
X203708000Y-129540000D01*
X206756000Y-134874000D02*
X205994000Y-134112000D01*
X205994000Y-134112000D02*
X205994000Y-130810000D01*
X209804000Y-127000000D02*
X209804000Y-125730000D01*
X209804000Y-125730000D02*
X213614000Y-121920000D01*
X205994000Y-130810000D02*
X209804000Y-127000000D01*
M02*
